<?xml version="1.0" encoding="utf-8"?>
<svg version="1.1" id="Layer_1"
xmlns="http://www.w3.org/2000/svg"
xmlns:xlink="http://www.w3.org/1999/xlink"
width="267px" height="106px"
xml:space="preserve">
<g id="PathID_13" transform="matrix(1.2066, 0, 0, 1.2066, 116.35, 74)" opacity="1">
<path style="fill:#1C84B7;fill-opacity:1" d="M23.5 -11.9Q23.5 -9.3 22.9 -7Q22.3 -4.7 20.85 -3Q19.4 -1.25 16.9 -0.25Q14.45 0.7 10.65 0.7Q7.15 0.7 4.65 -0.1Q2.15 -0.95 0.5 -2.1L3.15 -8.3Q4.65 -7.4 6.35 -6.75Q8.05 -6.1 10 -6.1Q12.95 -6.1 14.2 -7.5Q15.5 -8.95 15.5 -12.35L15.5 -35.45L23.5 -35.45L23.5 -11.9" />
</g>
<g id="PathID_14" transform="matrix(1.2066, 0, 0, 1.2066, 116.35, 74)" opacity="1">
</g>
<g id="PathID_15" transform="matrix(0.444702, 0, 0, 0.444702, -83.7, -286.05)" opacity="1">
<path style="fill:#37B9FF;fill-opacity:1" d="M395.1 832.35Q396.3 835.35 396.3 838.5Q396.3 841.65 395.1 844.65Q393.9 847.7 391.5 850.1Q389.1 852.45 386.1 853.65Q383.05 854.85 379.95 854.85Q376.8 854.85 373.75 853.65Q370.75 852.45 368.4 850.1L320.2 801.9Q318.7 802.35 317.2 802.65Q315.7 803 314.15 803.25Q312.6 803.5 311 803.6Q309.45 803.75 307.85 803.75Q299.25 803.75 291.7 800.45Q284.15 797.2 278.5 791.6Q272.9 785.95 269.65 778.4Q266.4 770.85 266.4 762.3Q266.4 753.7 269.65 746.15Q272.9 738.6 278.55 732.95Q284.15 727.35 291.7 724.1Q299.25 720.85 307.85 720.85Q316.4 720.85 323.95 724.1Q331.5 727.35 337.15 733Q342.75 738.6 346 746.15Q349.3 753.7 349.3 762.3Q349.3 764.75 349 767.1Q348.7 769.5 348.15 771.8Q347.65 774.1 346.85 776.25Q346.05 778.45 345.1 780.5L391.55 826.95Q393.9 829.3 395.1 832.35" />
</g>
<g id="PathID_16" transform="matrix(0.444702, 0, 0, 0.444702, -83.7, -286.05)" opacity="1">
</g>
<g id="PathID_17" transform="matrix(0.444702, 0, 0, 0.444702, -83.7, -286.05)" opacity="1">
<path style="fill:#1C84B7;fill-opacity:1" d="M269.55 702.6Q262.7 705.3 257.25 710.1Q251.8 714.9 248.35 721.75Q244.9 728.55 244.5 737.25L244.5 784.5Q244.95 791.65 247.55 798.55Q250.2 805.5 255.05 811.05Q259.95 816.65 267.1 820.25Q274.3 823.9 283.9 824.45L284.1 824.45L285.05 824.45L287.35 824.45L291.5 824.4Q306.65 824.05 314 831.05Q321.3 838 322.45 846.55Q323.55 855.05 319.25 862.2Q315 869.4 306.95 869.4L243.5 869.4Q234.35 869.4 226.35 865.9Q218.3 862.45 212.35 856.5Q206.4 850.5 202.95 842.5Q199.5 834.5 199.5 825.4L199.5 698.5Q199.5 689.35 202.95 681.35Q206.4 673.3 212.35 667.35Q218.35 661.4 226.35 657.95Q234.35 654.5 243.5 654.5L370.4 654.5Q379.5 654.5 387.5 657.95Q395.55 661.4 401.5 667.35Q407.45 673.35 410.9 681.35Q414.4 689.35 414.4 698.5L414.4 706.55L414.4 725.8L414.4 748.9L414.4 768.5Q414.4 779 407.5 783.8Q400.6 788.65 392.3 787.25Q383.95 785.85 376.85 778Q369.75 770.15 369.3 755.25Q369.05 748.5 369.05 743.55L369.1 735.45L369.3 730.65L369.4 729.15Q369.5 722.25 367 716.7Q364.55 711.15 359.9 707.3Q355.25 703.45 348.75 701.4Q342.2 699.4 334.25 699.5L283.75 699.5Q276.45 699.9 269.55 702.6" />
</g>
<g id="PathID_18" transform="matrix(0.444702, 0, 0, 0.444702, -83.7, -286.05)" opacity="1">
</g>
<g id="PathID_19" transform="matrix(1.2066, 0, 0, 1.2066, 153.45, 74)" opacity="1">
<path style="fill:#37B9FF;fill-opacity:1" d="M12.65 -3.5Q20.4 -3.5 20.4 -8.85Q20.4 -10.5 19.75 -11.65Q19.05 -12.8 17.85 -13.65Q16.7 -14.5 15.15 -15.1L11.95 -16.3Q10 -17 8.3 -17.85Q6.55 -18.7 5.25 -19.85Q4 -21 3.25 -22.55Q2.5 -24.15 2.5 -26.4Q2.5 -31.05 5.65 -33.7Q8.85 -36.3 14.45 -36.3Q17.65 -36.3 20.3 -35.6Q22.95 -34.9 24.15 -34.1L22.55 -30.05Q21.5 -30.7 19.35 -31.35Q17.25 -32 14.45 -32Q13 -32 11.75 -31.7Q10.55 -31.35 9.6 -30.75Q8.7 -30.15 8.15 -29.2Q7.6 -28.25 7.6 -26.95Q7.6 -25.55 8.2 -24.55Q8.75 -23.6 9.75 -22.85Q10.8 -22.1 12.15 -21.5L15.15 -20.25Q17.45 -19.35 19.35 -18.4Q21.3 -17.5 22.7 -16.2Q24.1 -14.95 24.85 -13.15Q25.65 -11.4 25.65 -8.9Q25.65 -4.25 22.25 -1.75Q18.85 0.75 12.65 0.75Q10.55 0.75 8.75 0.45Q7 0.2 5.6 -0.15Q4.25 -0.55 3.25 -1Q2.25 -1.4 1.7 -1.75L3.15 -5.8Q4.35 -5.15 6.75 -4.35Q9.15 -3.5 12.65 -3.5" />
</g>
<g id="PathID_20" transform="matrix(1.2066, 0, 0, 1.2066, 153.45, 74)" opacity="1">
</g>
<g id="PathID_21" transform="matrix(1.2066, 0, 0, 1.2066, 182.65, 74)" opacity="1">
<path style="fill:#37B9FF;fill-opacity:1" d="M2.95 -17.75Q2.95 -22.3 4.3 -25.8Q5.65 -29.25 8 -31.6Q10.35 -33.95 13.45 -35.1Q16.55 -36.3 20 -36.3Q23.45 -36.3 26.5 -35.1Q29.55 -33.95 31.85 -31.6Q34.15 -29.25 35.5 -25.8Q36.85 -22.3 36.85 -17.75Q36.85 -13.75 35.85 -10.65Q34.8 -7.5 33 -5.25Q31.15 -2.95 28.75 -1.55Q26.3 -0.15 23.55 0.35Q23.6 1.5 24.6 2.4Q25.6 3.3 27.1 3.95Q28.65 4.55 30.55 4.95Q32.45 5.35 34.35 5.55L33.15 9.45Q30.5 9.1 28.05 8.5Q25.65 7.9 23.65 6.95Q21.7 6 20.35 4.45Q19.05 2.95 18.55 0.7Q15.35 0.5 12.5 -0.8Q9.6 -2.1 7.5 -4.4Q5.4 -6.75 4.2 -10.05Q2.95 -13.4 2.95 -17.75M8.2 -17.75Q8.2 -14.55 9 -11.9Q9.8 -9.25 11.35 -7.4Q12.85 -5.55 15 -4.55Q17.2 -3.55 19.9 -3.55Q22.6 -3.55 24.75 -4.55Q26.9 -5.55 28.45 -7.4Q29.95 -9.25 30.75 -11.9Q31.6 -14.55 31.6 -17.75Q31.6 -21 30.75 -23.6Q29.95 -26.25 28.45 -28.1Q26.9 -29.95 24.75 -30.95Q22.6 -31.95 19.9 -31.95Q17.2 -31.95 15 -30.95Q12.85 -29.95 11.35 -28.1Q9.8 -26.25 9 -23.6Q8.2 -21 8.2 -17.75" />
</g>
<g id="PathID_22" transform="matrix(1.2066, 0, 0, 1.2066, 182.65, 74)" opacity="1">
</g>
<g id="PathID_23" transform="matrix(1.2066, 0, 0, 1.2066, 227.1, 74)" opacity="1">
<path style="fill:#37B9FF;fill-opacity:1" d="M25.75 -4.3L25.75 0L4.4 0L4.4 -35.45L9.35 -35.45L9.35 -4.3L25.75 -4.3" />
</g>
<g id="PathID_24" transform="matrix(1.2066, 0, 0, 1.2066, 227.1, 74)" opacity="1">
</g>
</svg>
